<svg width="24" height="24" viewBox="0 0 24 24" fill="none" xmlns="http://www.w3.org/2000/svg">
<path d="M19.4896 7.21534L14.1054 3.44826C12.6378 2.42003 10.385 2.47611 8.97354 3.56978L4.2904 7.22468C3.35565 7.9538 2.61719 9.44941 2.61719 10.6272V17.077C2.61719 19.4607 4.55214 21.405 6.93577 21.405H17.0125C19.3961 21.405 21.331 19.47 21.331 17.0864V10.7487C21.331 9.4868 20.5178 7.9351 19.4896 7.21534ZM12.6752 17.6659C12.6752 18.0492 12.3574 18.367 11.9741 18.367C11.5909 18.367 11.273 18.0492 11.273 17.6659V14.8617C11.273 14.4784 11.5909 14.1606 11.9741 14.1606C12.3574 14.1606 12.6752 14.4784 12.6752 14.8617V17.6659Z" fill="#EA7956"/>
</svg>
