<svg width="23" height="23" viewBox="0 0 23 23" fill="none" xmlns="http://www.w3.org/2000/svg">
<path d="M18.9505 6.43836L13.5663 2.67128C12.0987 1.64305 9.84597 1.69913 8.43448 2.7928L3.75134 6.44771C2.81658 7.17682 2.07812 8.67243 2.07812 9.85023V16.3001C2.07812 18.6837 4.01307 20.628 6.39671 20.628H16.4734C18.857 20.628 20.792 18.693 20.792 16.3094V9.97175C20.792 8.70982 19.9787 7.15812 18.9505 6.43836ZM12.1361 16.889C12.1361 17.2722 11.8183 17.59 11.4351 17.59C11.0518 17.59 10.734 17.2722 10.734 16.889V14.0847C10.734 13.7014 11.0518 13.3836 11.4351 13.3836C11.8183 13.3836 12.1361 13.7014 12.1361 14.0847V16.889Z" fill="white"/>
</svg>
