<svg width="24" height="25" viewBox="0 0 24 25" fill="none" xmlns="http://www.w3.org/2000/svg">
<path d="M20.1892 14.1028L19.0592 12.2228C18.8092 11.8128 18.5892 11.0228 18.5892 10.5428V8.67277C18.5892 5.04277 15.6392 2.09277 12.0192 2.09277C8.38923 2.10277 5.43923 5.04277 5.43923 8.67277V10.5328C5.43923 11.0128 5.21923 11.8028 4.97923 12.2128L3.84923 14.0928C3.41923 14.8228 3.31923 15.6528 3.58923 16.3728C3.85923 17.1028 4.46923 17.6828 5.26923 17.9428C6.34923 18.3028 7.43923 18.5628 8.54923 18.7528C8.65923 18.7728 8.76923 18.7828 8.87923 18.8028C9.01923 18.8228 9.16923 18.8428 9.31923 18.8628C9.57923 18.9028 9.83923 18.9328 10.1092 18.9528C10.7392 19.0128 11.3792 19.0428 12.0192 19.0428C12.6492 19.0428 13.2792 19.0128 13.8992 18.9528C14.1292 18.9328 14.3592 18.9128 14.5792 18.8828C14.7592 18.8628 14.9392 18.8428 15.1192 18.8128C15.2292 18.8028 15.3392 18.7828 15.4492 18.7628C16.5692 18.5828 17.6792 18.3028 18.7592 17.9428C19.5292 17.6828 20.1192 17.1028 20.3992 16.3628C20.6792 15.6128 20.5992 14.7928 20.1892 14.1028ZM12.7492 10.0428C12.7492 10.4628 12.4092 10.8028 11.9892 10.8028C11.5692 10.8028 11.2292 10.4628 11.2292 10.0428V6.94277C11.2292 6.52277 11.5692 6.18277 11.9892 6.18277C12.4092 6.18277 12.7492 6.52277 12.7492 6.94277V10.0428Z" fill="#565656"/>
<path d="M14.8297 20.053C14.4097 21.213 13.2997 22.043 11.9997 22.043C11.2097 22.043 10.4297 21.723 9.87969 21.153C9.55969 20.853 9.31969 20.453 9.17969 20.043C9.30969 20.063 9.43969 20.073 9.57969 20.093C9.80969 20.123 10.0497 20.153 10.2897 20.173C10.8597 20.223 11.4397 20.253 12.0197 20.253C12.5897 20.253 13.1597 20.223 13.7197 20.173C13.9297 20.153 14.1397 20.143 14.3397 20.113C14.4997 20.093 14.6597 20.073 14.8297 20.053Z" fill="#565656"/>
</svg>
