<svg width="25" height="24" viewBox="0 0 25 24" fill="none" xmlns="http://www.w3.org/2000/svg">
<path d="M20.7309 9.21994C18.9209 9.21994 18.1809 7.93994 19.0809 6.36994C19.6009 5.45994 19.2909 4.29994 18.3809 3.77994L16.6509 2.78994C15.8609 2.31994 14.8409 2.59994 14.3709 3.38994L14.2609 3.57994C13.3609 5.14994 11.8809 5.14994 10.9709 3.57994L10.8609 3.38994C10.4109 2.59994 9.39086 2.31994 8.60086 2.78994L6.87086 3.77994C5.96086 4.29994 5.65086 5.46994 6.17086 6.37994C7.08086 7.93994 6.34086 9.21994 4.53086 9.21994C3.49086 9.21994 2.63086 10.0699 2.63086 11.1199V12.8799C2.63086 13.9199 3.48086 14.7799 4.53086 14.7799C6.34086 14.7799 7.08086 16.0599 6.17086 17.6299C5.65086 18.5399 5.96086 19.6999 6.87086 20.2199L8.60086 21.2099C9.39086 21.6799 10.4109 21.3999 10.8809 20.6099L10.9909 20.4199C11.8909 18.8499 13.3709 18.8499 14.2809 20.4199L14.3909 20.6099C14.8609 21.3999 15.8809 21.6799 16.6709 21.2099L18.4009 20.2199C19.3109 19.6999 19.6209 18.5299 19.1009 17.6299C18.1909 16.0599 18.9309 14.7799 20.7409 14.7799C21.7809 14.7799 22.6409 13.9299 22.6409 12.8799V11.1199C22.6309 10.0799 21.7809 9.21994 20.7309 9.21994ZM12.6309 15.2499C10.8409 15.2499 9.38086 13.7899 9.38086 11.9999C9.38086 10.2099 10.8409 8.74994 12.6309 8.74994C14.4209 8.74994 15.8809 10.2099 15.8809 11.9999C15.8809 13.7899 14.4209 15.2499 12.6309 15.2499Z" fill="#565656"/>
</svg>
