<svg width="615" height="615" viewBox="0 0 615 615" fill="none" xmlns="http://www.w3.org/2000/svg">
<path d="M515.74 0H98.94C72.6995 0 47.5337 10.424 28.9789 28.9789C10.424 47.5337 0 72.6995 0 98.94L0 515.74C0.00265199 541.979 10.4278 567.142 28.9824 585.695C47.5369 604.247 72.7012 614.67 98.94 614.67H515.74C528.732 614.67 541.596 612.111 553.599 607.139C565.602 602.168 576.508 594.881 585.694 585.694C594.881 576.508 602.168 565.602 607.139 553.599C612.111 541.596 614.67 528.732 614.67 515.74V98.94C614.671 85.9475 612.113 73.082 607.142 61.0781C602.171 49.0742 594.884 38.167 585.698 28.9795C576.511 19.7919 565.605 12.5039 553.601 7.53155C541.598 2.55923 528.732 -6.63754e-08 515.74 0ZM501.16 346.12H195.05V429.26H424.12V383.53H501.12V402.94C501.123 428.975 490.79 453.946 472.392 472.367C453.993 490.787 429.035 501.151 403 501.18H211.78C198.877 501.183 186.099 498.644 174.178 493.708C162.256 488.772 151.423 481.536 142.297 472.414C133.172 463.291 125.933 452.461 120.994 440.54C116.054 428.62 113.511 415.843 113.51 402.94V211.77C113.505 198.863 116.043 186.082 120.979 174.156C125.916 162.23 133.154 151.394 142.28 142.267C151.406 133.14 162.242 125.901 174.167 120.963C186.092 116.026 198.873 113.486 211.78 113.49H403C415.903 113.491 428.679 116.035 440.598 120.975C452.517 125.916 463.346 133.156 472.467 142.283C481.587 151.41 488.82 162.244 493.752 174.167C498.683 186.09 501.218 198.867 501.21 211.77L501.16 346.12Z" fill="#DF3814"/>
<path d="M391.67 191.43H226.76C218.477 191.43 210.534 194.72 204.677 200.577C198.82 206.434 195.53 214.377 195.53 222.66V287.91H422.9V222.66C422.9 214.377 419.61 206.434 413.753 200.577C407.896 194.72 399.953 191.43 391.67 191.43Z" fill="#DF3814"/>
</svg>
