<svg width="40" height="40" viewBox="0 0 40 40" fill="none" xmlns="http://www.w3.org/2000/svg">
<circle cx="20" cy="20" r="20" fill="#EEF6FB"/>
<path d="M26 12H14C11.7909 12 10 13.7909 10 16V26C10 28.2091 11.7909 30 14 30H26C28.2091 30 30 28.2091 30 26V16C30 13.7909 28.2091 12 26 12Z" stroke="#001827" stroke-width="1.5" stroke-linejoin="round"/>
<path d="M10 16C10 13.7909 11.7909 12 14 12H26C28.2091 12 30 13.7909 30 16V17H10V16Z" stroke="#001827" stroke-width="1.5" stroke-linejoin="round"/>
<path d="M14 10V14M26 10V14" stroke="#001827" stroke-width="1.5" stroke-linecap="round"/>
<path d="M19.9995 20L21.4572 21.9936L23.8037 22.7639L22.3581 24.7664L22.3506 27.2361L19.9995 26.48L17.6484 27.2361L17.6409 24.7664L16.1953 22.7639L18.5418 21.9936L19.9995 20Z" stroke="#001827" stroke-width="1.5" stroke-linejoin="round"/>
</svg>
