<svg width="234" height="56" viewBox="0 0 234 56" fill="none" xmlns="http://www.w3.org/2000/svg">
<g clip-path="url(#clip0_802_534)">
<path d="M80.9058 28.7944V34.0084H64.2617V28.7944H80.9058Z" fill="#DF3814"/>
<path d="M122.882 10.6207L106.929 45.3804H97.1513L81.1484 10.6207H89.5934L102.039 39.3702L114.434 10.6207H122.882Z" fill="#DF3814"/>
<path d="M155.923 45.3804H125.105V10.6207H155.428V16.7729H133.056V24.4702H154.046V30.5774H133.056V39.2141H155.923V45.3804Z" fill="#DF3814"/>
<path d="M196.168 10.6207V45.3804H187.225L168.068 20.5517V45.3804H160.117V10.6207H169.006L188.168 35.4991V10.6207H196.168Z" fill="#DF3814"/>
<path d="M234.001 16.7776H220.913V45.3804H212.962V16.7776H199.875V10.6255H233.999L234.001 16.7776Z" fill="#DF3814"/>
<path d="M46.7318 1.24238e-06H8.9604C6.58352 0.00125593 4.30442 0.951506 2.62415 2.64184C0.943889 4.33217 -3.27568e-07 6.62423 0 9.01409L0 46.9918C-1.01428e-08 48.1755 0.231898 49.3476 0.682451 50.4412C1.133 51.5348 1.79339 52.5284 2.62589 53.3653C3.45839 54.2023 4.44671 54.8661 5.5344 55.319C6.62209 55.7719 7.78785 56.0049 8.96511 56.0047H46.7365C47.9137 56.0049 49.0795 55.7719 50.1672 55.319C51.2549 54.8661 52.2432 54.2023 53.0757 53.3653C53.9082 52.5284 54.5686 51.5348 55.0191 50.4412C55.4697 49.3476 55.7016 48.1755 55.7016 46.9918V9.01409C55.7016 7.82995 55.4695 6.6574 55.0187 5.56346C54.5679 4.46951 53.9071 3.47559 53.0741 2.63849C52.2411 1.8014 51.2522 1.13752 50.164 0.684799C49.0758 0.232077 47.9095 -0.000620438 46.7318 1.24238e-06ZM45.4115 31.5333H17.6737V39.1052H38.4303V34.9419H45.4115V36.7165C45.4115 39.0899 44.474 41.366 42.8051 43.0445C41.1363 44.7229 38.8727 45.6661 36.5123 45.6667H19.1904C18.0212 45.6671 16.8634 45.4358 15.7831 44.9862C14.7027 44.5365 13.7211 43.8773 12.8941 43.0462C12.0672 42.2151 11.4112 41.2283 10.9636 40.1423C10.516 39.0562 10.2855 37.8922 10.2853 36.7165V19.2929C10.2849 18.117 10.5149 16.9526 10.9623 15.8661C11.4096 14.7796 12.0656 13.7925 12.8926 12.961C13.7196 12.1296 14.7015 11.4702 15.7821 11.0205C16.8628 10.5709 18.0209 10.3397 19.1904 10.3404H36.5123C37.6814 10.3404 38.839 10.572 39.919 11.0219C40.999 11.4719 41.9802 12.1314 42.8067 12.9628C43.6331 13.7942 44.2885 14.7811 44.7355 15.8673C45.1824 16.9534 45.4121 18.1175 45.4115 19.2929V31.5333Z" fill="#DF3814"/>
<path d="M35.4886 17.4402H20.5448C19.7942 17.4402 19.0744 17.74 18.5437 18.2736C18.013 18.8072 17.7148 19.5309 17.7148 20.2856V26.2307H38.3185V20.2856C38.3185 19.5309 38.0203 18.8072 37.4896 18.2736C36.9589 17.74 36.2391 17.4402 35.4886 17.4402Z" fill="#DF3814"/>
</g>
<defs>
<clipPath id="clip0_802_534">
<rect width="234" height="56" fill="white"/>
</clipPath>
</defs>
</svg>
