<svg width="50" height="50" viewBox="0 0 50 50" fill="none" xmlns="http://www.w3.org/2000/svg">
<circle opacity="0.2" cx="25" cy="25" r="25" fill="#2817E9"/>
<circle cx="25" cy="25" r="20" fill="#2817E9"/>
<g clip-path="url(#clip0_1324_12602)">
<path d="M25 28.3333C24.3407 28.3333 23.6963 28.1378 23.1481 27.7716C22.5999 27.4053 22.1727 26.8847 21.9204 26.2756C21.6681 25.6665 21.6021 24.9963 21.7307 24.3497C21.8593 23.7031 22.1768 23.1092 22.643 22.643C23.1092 22.1768 23.7031 21.8593 24.3497 21.7307C24.9963 21.6021 25.6665 21.6681 26.2756 21.9204C26.8847 22.1727 27.4053 22.5999 27.7716 23.1481C28.1378 23.6963 28.3333 24.3407 28.3333 25C28.3333 25.8841 27.9821 26.7319 27.357 27.357C26.7319 27.9821 25.8841 28.3333 25 28.3333ZM19.7358 28.3333H15.8333C15.6123 28.3333 15.4004 28.2455 15.2441 28.0893C15.0878 27.933 15 27.721 15 27.5C15.0079 26.3034 15.4431 25.149 16.2271 24.2451C17.0112 23.3411 18.0924 22.747 19.2758 22.57C19.4134 22.5507 19.5535 22.5661 19.6836 22.6148C19.8136 22.6635 19.9294 22.7439 20.0205 22.8487C20.1116 22.9535 20.175 23.0794 20.2051 23.215C20.2351 23.3506 20.2308 23.4915 20.1925 23.625C20.0648 24.0722 20 24.535 20 25C20.0002 25.7415 20.1671 26.4734 20.4883 27.1417C20.5487 27.2685 20.5761 27.4086 20.5679 27.5488C20.5596 27.6891 20.5161 27.825 20.4413 27.9439C20.3664 28.0628 20.2627 28.1608 20.1398 28.2289C20.0169 28.297 19.8788 28.3329 19.7383 28.3333H19.7358ZM29.1667 35H20.8333C20.6123 35 20.4004 34.9122 20.2441 34.7559C20.0878 34.5996 20 34.3877 20 34.1667C20 32.8406 20.5268 31.5688 21.4645 30.6311C22.4021 29.6935 23.6739 29.1667 25 29.1667C26.3261 29.1667 27.5979 29.6935 28.5355 30.6311C29.4732 31.5688 30 32.8406 30 34.1667C30 34.3877 29.9122 34.5996 29.7559 34.7559C29.5996 34.9122 29.3877 35 29.1667 35ZM30 21.6667C29.3407 21.6667 28.6963 21.4712 28.1481 21.1049C27.5999 20.7386 27.1727 20.218 26.9204 19.6089C26.6681 18.9999 26.6021 18.3296 26.7307 17.683C26.8593 17.0364 27.1768 16.4425 27.643 15.9763C28.1092 15.5101 28.7031 15.1927 29.3497 15.0641C29.9963 14.9354 30.6665 15.0014 31.2756 15.2537C31.8847 15.506 32.4053 15.9333 32.7716 16.4814C33.1378 17.0296 33.3333 17.6741 33.3333 18.3333C33.3333 19.2174 32.9821 20.0652 32.357 20.6904C31.7319 21.3155 30.8841 21.6667 30 21.6667ZM20 21.6667C19.3407 21.6667 18.6963 21.4712 18.1481 21.1049C17.5999 20.7386 17.1727 20.218 16.9204 19.6089C16.6681 18.9999 16.6021 18.3296 16.7307 17.683C16.8593 17.0364 17.1768 16.4425 17.643 15.9763C18.1092 15.5101 18.7031 15.1927 19.3497 15.0641C19.9963 14.9354 20.6665 15.0014 21.2756 15.2537C21.8847 15.506 22.4053 15.9333 22.7716 16.4814C23.1378 17.0296 23.3333 17.6741 23.3333 18.3333C23.3333 19.2174 22.9821 20.0652 22.357 20.6904C21.7319 21.3155 20.8841 21.6667 20 21.6667ZM34.1667 28.3333H30.2642C30.1237 28.3329 29.9856 28.297 29.8627 28.2289C29.7398 28.1608 29.6361 28.0628 29.5612 27.9439C29.4864 27.825 29.4429 27.6891 29.4346 27.5488C29.4264 27.4086 29.4538 27.2685 29.5142 27.1417C29.8345 26.4732 30.0005 25.7413 30 25C29.9986 24.5348 29.9324 24.072 29.8033 23.625C29.7648 23.4911 29.7605 23.3498 29.7907 23.2138C29.821 23.0778 29.8848 22.9516 29.9764 22.8467C30.068 22.7417 30.1844 22.6614 30.315 22.6131C30.4457 22.5648 30.5863 22.55 30.7242 22.57C31.9076 22.747 32.9888 23.3411 33.7729 24.2451C34.5569 25.149 34.9921 26.3034 35 27.5C35 27.721 34.9122 27.933 34.7559 28.0893C34.5996 28.2455 34.3877 28.3333 34.1667 28.3333Z" fill="white"/>
</g>
<defs>
<clipPath id="clip0_1324_12602">
<rect width="20" height="20" fill="white" transform="translate(15 15)"/>
</clipPath>
</defs>
</svg>
