<svg width="40" height="40" viewBox="0 0 40 40" fill="none" xmlns="http://www.w3.org/2000/svg">
<circle cx="20" cy="20" r="20" fill="#EEF6FB"/>
<g clip-path="url(#clip0_669_890)">
<path d="M22.2976 30.5855L31.2211 9.84199C31.268 9.70465 31.2755 9.5569 31.2427 9.41553C31.2098 9.27415 31.138 9.14481 31.0354 9.04218C30.9328 8.93955 30.8034 8.86775 30.6621 8.83493C30.5207 8.80211 30.3729 8.80958 30.2356 8.85649L9.6076 17.6982C8.9671 17.9705 8.6911 18.677 8.73985 19.2762C8.78635 19.8342 9.1021 20.4522 9.7786 20.6007L18.0946 21.9837L19.5841 30.5015C20.3813 31.3955 21.5243 31.3955 22.2976 30.5855ZM27.2461 11.7695L18.4831 20.5295L10.3261 19.169C10.3546 19.091 10.3771 19.034 10.4041 18.9875L27.2461 11.7695ZM28.3051 12.83L21.1006 29.645C21.0323 29.6892 20.9618 29.6637 20.8898 29.645L19.5481 21.593L28.3051 12.83Z" fill="#001827"/>
</g>
<defs>
<clipPath id="clip0_669_890">
<rect width="24" height="24" fill="white" transform="translate(8 8)"/>
</clipPath>
</defs>
</svg>
