<svg width="16" height="16" viewBox="0 0 16 16" fill="none" xmlns="http://www.w3.org/2000/svg">
<g clip-path="url(#clip0_845_975)">
<path d="M15.0062 9.17331C14.759 8.83203 14.6259 8.42139 14.6259 7.99997C14.6259 7.57856 14.759 7.16791 15.0062 6.82664L15.5129 6.12664C15.5749 6.04116 15.6156 5.9422 15.6319 5.83788C15.6481 5.73357 15.6393 5.6269 15.6062 5.52664C15.5728 5.42743 15.517 5.3373 15.4429 5.26328C15.3689 5.18926 15.2788 5.13337 15.1796 5.09997L14.3596 4.83331C13.9579 4.70373 13.6077 4.44987 13.3597 4.10837C13.1117 3.76687 12.9786 3.35538 12.9796 2.93331V2.06664C12.9795 1.96142 12.9545 1.85771 12.9067 1.76399C12.8588 1.67027 12.7895 1.58921 12.7043 1.52744C12.6191 1.46567 12.5205 1.42493 12.4166 1.40857C12.3126 1.39221 12.2063 1.40069 12.1062 1.43331L11.2796 1.69997C10.8782 1.82984 10.4461 1.82949 10.045 1.69898C9.64389 1.56847 9.29431 1.31447 9.04624 0.973307L8.53957 0.273307C8.47488 0.192179 8.39274 0.12667 8.29925 0.0816474C8.20577 0.0366245 8.10334 0.0132446 7.99957 0.0132446C7.89581 0.0132446 7.79338 0.0366245 7.69989 0.0816474C7.60641 0.12667 7.52427 0.192179 7.45957 0.273307L6.95291 0.973307C6.70484 1.31447 6.35526 1.56847 5.95414 1.69898C5.55302 1.82949 5.1209 1.82984 4.71957 1.69997L3.89291 1.43331C3.79287 1.40069 3.68653 1.39221 3.58258 1.40857C3.47864 1.42493 3.38004 1.46567 3.29486 1.52744C3.20968 1.58921 3.14033 1.67027 3.09248 1.76399C3.04464 1.85771 3.01965 1.96142 3.01957 2.06664V2.93331C3.0206 3.35538 2.88748 3.76687 2.63944 4.10837C2.3914 4.44987 2.04127 4.70373 1.63957 4.83331L0.819574 5.09997C0.720369 5.13337 0.630233 5.18926 0.556215 5.26328C0.482198 5.3373 0.426305 5.42743 0.392908 5.52664C0.359849 5.6269 0.351071 5.73357 0.367297 5.83788C0.383524 5.9422 0.42429 6.04116 0.486241 6.12664L0.992908 6.82664C1.24014 7.16791 1.37325 7.57856 1.37325 7.99997C1.37325 8.42139 1.24014 8.83203 0.992908 9.17331L0.486241 9.87331C0.42429 9.95878 0.383524 10.0578 0.367297 10.1621C0.351071 10.2664 0.359849 10.3731 0.392908 10.4733C0.426305 10.5725 0.482198 10.6626 0.556215 10.7367C0.630233 10.8107 0.720369 10.8666 0.819574 10.9L1.63957 11.1666C2.04127 11.2962 2.3914 11.5501 2.63944 11.8916C2.88748 12.2331 3.0206 12.6446 3.01957 13.0666V13.9333C3.01965 14.0385 3.04464 14.1422 3.09248 14.236C3.14033 14.3297 3.20968 14.4107 3.29486 14.4725C3.38004 14.5343 3.47864 14.575 3.58258 14.5914C3.68653 14.6077 3.79287 14.5993 3.89291 14.5666L4.71291 14.3C5.11509 14.1679 5.54884 14.1671 5.95149 14.2978C6.35414 14.4284 6.70484 14.6836 6.95291 15.0266L7.45957 15.7266C7.52182 15.8114 7.60313 15.8803 7.69694 15.9278C7.79075 15.9753 7.89443 16 7.99957 16C8.10472 16 8.20839 15.9753 8.30221 15.9278C8.39602 15.8803 8.47733 15.8114 8.53957 15.7266L9.04624 15.0266C9.29473 14.6841 9.64545 14.4292 10.048 14.2987C10.4505 14.1681 10.884 14.1686 11.2862 14.3L12.1062 14.5666C12.2063 14.5993 12.3126 14.6077 12.4166 14.5914C12.5205 14.575 12.6191 14.5343 12.7043 14.4725C12.7895 14.4107 12.8588 14.3297 12.9067 14.236C12.9545 14.1422 12.9795 14.0385 12.9796 13.9333V13.0666C12.9786 12.6446 13.1117 12.2331 13.3597 11.8916C13.6077 11.5501 13.9579 11.2962 14.3596 11.1666L15.1796 10.9C15.2788 10.8666 15.3689 10.8107 15.4429 10.7367C15.517 10.6626 15.5728 10.5725 15.6062 10.4733C15.6393 10.3731 15.6481 10.2664 15.6319 10.1621C15.6156 10.0578 15.5749 9.95878 15.5129 9.87331L15.0062 9.17331ZM11.1396 7.13797L7.80624 10.4713C7.68122 10.5963 7.51168 10.6665 7.33491 10.6665C7.15813 10.6665 6.98859 10.5963 6.86357 10.4713L4.86357 8.47131C4.7999 8.40981 4.74911 8.33625 4.71417 8.25491C4.67923 8.17357 4.66084 8.08609 4.66007 7.99757C4.6593 7.90905 4.67617 7.82127 4.70969 7.73934C4.74321 7.65741 4.79272 7.58297 4.85531 7.52038C4.91791 7.45778 4.99234 7.40828 5.07427 7.37476C5.1562 7.34124 5.24399 7.32437 5.33251 7.32514C5.42103 7.32591 5.50851 7.3443 5.58984 7.37924C5.67118 7.41418 5.74474 7.46497 5.80624 7.52864L7.33291 9.05731L10.1949 6.19531C10.3206 6.07387 10.489 6.00667 10.6638 6.00819C10.8386 6.00971 11.0058 6.07982 11.1295 6.20343C11.2531 6.32703 11.3232 6.49424 11.3247 6.66904C11.3262 6.84384 11.259 7.01224 11.1376 7.13797H11.1396Z" fill="#0063A2"/>
</g>
<defs>
<clipPath id="clip0_845_975">
<rect width="16" height="16" fill="white"/>
</clipPath>
</defs>
</svg>
